<?xml version="1.0" encoding="UTF-8" standalone="no"?>
<!-- Created with Inkscape (http://www.inkscape.org/) -->

<svg
   width="210mm"
   height="200mm"
   viewBox="0 0 210 200"
   version="1.1"
   id="svg5"
   inkscape:version="1.1.1 (3bf5ae0d25, 2021-09-20)"
   sodipodi:docname="logo.svg"
   inkscape:export-filename="C:\Users\KDJ\Desktop\Projects\Programming\xkcdSearch\xkcdSearchSite\src\assets\logo.png"
   inkscape:export-xdpi="8.1280003"
   inkscape:export-ydpi="8.1280003"
   xmlns:inkscape="http://www.inkscape.org/namespaces/inkscape"
   xmlns:sodipodi="http://sodipodi.sourceforge.net/DTD/sodipodi-0.dtd"
   xmlns="http://www.w3.org/2000/svg"
   xmlns:svg="http://www.w3.org/2000/svg">
  <sodipodi:namedview
     id="namedview7"
     pagecolor="#ffffff"
     bordercolor="#666666"
     borderopacity="1.0"
     inkscape:pageshadow="2"
     inkscape:pageopacity="0.0"
     inkscape:pagecheckerboard="0"
     inkscape:document-units="mm"
     showgrid="false"
     inkscape:zoom="0.5052024"
     inkscape:cx="543.34658"
     inkscape:cy="337.4885"
     inkscape:window-width="1920"
     inkscape:window-height="991"
     inkscape:window-x="-9"
     inkscape:window-y="-9"
     inkscape:window-maximized="1"
     inkscape:current-layer="layer1" />
  <defs
     id="defs2" />
  <g
     inkscape:label="Layer 1"
     inkscape:groupmode="layer"
     id="layer1">
    <path
       style="fill:#000000;stroke-width:0.77154"
       d="m 2.1620958,101.34381 c 0,-97.2224033 0,-97.2224033 8.8084052,-97.2224033 7.334149,0.25012 10.41818,0.01399 15.458788,0 42.8592,2.1781328 63.104233,0.0042 96.543051,0 85.96238,0 85.96238,0 85.96238,97.2140233 0,97.214 0,97.214 -63.75165,97.214 -63.751644,0 -63.751644,0 -63.213588,-6.16813 0.29593,-3.39247 0.861553,-7.2961 1.256935,-8.67472 0.395382,-1.37863 0.75996,-4.24485 0.810162,-6.36938 0.05026,-2.12454 0.310609,-4.85344 0.578654,-6.06422 0.391745,-1.76948 1.244317,-2.48844 4.34507,-3.66419 2.121738,-0.80451 4.552077,-1.47827 5.400777,-1.49725 0.848688,-0.0189 2.931853,-0.56633 4.62923,-1.21635 1.69739,-0.65002 5.08168,-1.63315 7.52064,-2.18472 2.43896,-0.55158 4.86931,-1.35319 5.40077,-1.78135 0.53148,-0.42818 2.52868,-1.14381 4.43824,-1.59032 1.90957,-0.44652 5.20789,-1.36741 7.32963,-2.04642 2.12174,-0.67902 8.54481,-2.7753 14.27348,-4.6584 5.72868,-1.88309 12.84613,-4.32462 15.81657,-5.4256 2.97043,-1.10099 6.18196,-2.73271 7.13673,-3.62605 0.95479,-0.89335 1.73598,-2.18471 1.73598,-2.86972 0,-0.685 0.67424,-2.56794 1.49833,-4.18433 0.82407,-1.61639 1.73834,-4.03335 2.0317,-5.37103 0.29337,-1.33768 1.18149,-3.64218 1.97361,-5.12111 0.79211,-1.47894 1.44021,-3.12936 1.44021,-3.66761 0,-0.53825 0.69439,-2.27421 1.54307,-3.85771 0.8487,-1.58347 1.54309,-3.31944 1.54309,-3.8577 0,-0.53824 0.69438,-2.2742 1.54307,-3.8577 0.8487,-1.58347 1.54309,-3.31943 1.54309,-3.85769 0,-0.53825 0.69438,-2.27421 1.54308,-3.85769 0.84869,-1.58349 1.55486,-3.752209 1.56925,-4.819359 0.0145,-1.06716 0.69701,-3.329055 1.51691,-5.026445 0.81989,-1.697388 1.5025,-3.520147 1.51689,-4.050575 0.0145,-0.530441 0.42687,-0.964431 0.91659,-0.964431 0.48973,0 2.07916,1.388769 3.53206,3.086157 1.88065,2.197125 3.23552,3.079092 4.70325,3.061622 1.13388,-0.0135 2.61249,-0.447487 3.28578,-0.964415 0.67329,-0.516939 1.62807,-1.698259 2.12173,-2.62514 0.49366,-0.926882 0.89756,-2.892056 0.89756,-4.36707 0,-1.966422 -0.8523,-3.780847 -3.19501,-6.801688 -1.75725,-2.26593 -3.78092,-4.640658 -4.49701,-5.277177 -0.7161,-0.636519 -2.51626,-2.719673 -4.00036,-4.629242 -1.4841,-1.909557 -3.47479,-4.830404 -4.42378,-6.490784 -1.41123,-2.469166 -1.69109,-4.014499 -1.537,-8.486929 0.10359,-3.007445 -0.0823,-7.898434 -0.41311,-10.86886 -0.35848,-3.218743 -1.19448,-6.245387 -2.06917,-7.491269 -0.80722,-1.149774 -1.47399,-2.538543 -1.48171,-3.086157 -0.008,-0.547614 -0.96885,-2.384439 -2.13585,-4.081827 -1.167,-1.697388 -2.98345,-3.988132 -4.03654,-5.090528 -1.0531,-1.102408 -2.60911,-2.364406 -3.45781,-2.804446 -0.84869,-0.44004 -3.31128,-1.038716 -5.47241,-1.330385 -2.61512,-0.35296 -5.42603,-0.139485 -8.40434,0.638261 -2.94225,0.768328 -5.39501,2.042685 -7.16091,3.720533 -1.47723,1.403577 -3.68435,3.906007 -4.90471,5.560984 -2.12448,2.881074 -2.21883,3.366809 -2.21883,11.422536 0,6.715114 0.31333,9.144753 1.55217,12.035985 0.85368,1.992365 2.29992,5.011263 3.21386,6.708639 0.91394,1.697388 3.07535,4.835148 4.80313,6.9728 1.72778,2.137652 4.36105,4.716616 5.85172,5.731038 1.8882,1.284926 4.12514,1.943951 7.37464,2.172623 2.56538,0.180529 5.89666,-0.01201 7.40282,-0.427905 1.63274,-0.450823 3.23546,-0.478025 3.96924,-0.06745 0.6769,0.378821 2.32208,2.305822 3.65593,4.282237 1.55542,2.304692 2.27806,4.168002 2.01489,5.19543 -0.22567,0.881081 -1.67259,5.421099 -3.21536,10.088916 -1.54278,4.667822 -3.47024,9.913761 -4.28325,11.657641 -0.81301,1.74385 -1.4782,3.71973 -1.4782,4.39081 0,0.67109 -0.33818,1.42915 -0.7515,1.6846 -0.41332,0.25545 -1.24607,2.0987 -1.85055,4.09612 -0.60446,1.99741 -1.65293,4.67326 -2.3299,5.9463 -0.67698,1.27303 -1.233,2.74986 -1.23562,3.28183 -0.002,0.53198 -0.69913,2.2628 -1.54783,3.84628 -0.84869,1.58348 -1.54307,3.3075 -1.54307,3.83115 0,0.52364 -0.70723,2.30891 -1.57161,3.96726 -1.10519,2.12037 -2.7291,3.61571 -5.47197,5.03876 -2.14522,1.11298 -4.47592,2.03537 -5.17938,2.04977 -0.70344,0.0145 -2.66776,0.69701 -4.36514,1.5169 -1.69739,0.8199 -3.60696,1.50464 -4.24348,1.52165 -0.63652,0.0171 -2.12105,0.53365 -3.29896,1.14807 -1.17791,0.61443 -3.95546,1.45502 -6.17231,1.86796 -2.21687,0.41296 -4.63826,0.98683 -5.38086,1.27529 -0.95991,0.37285 -1.3502,0.14784 -1.3502,-0.77844 0,-0.7166 1.1539,-2.7501 2.56421,-4.5189 1.41032,-1.76882 3.45761,-5.12557 4.54954,-7.45948 1.09192,-2.33391 2.5549,-5.85129 3.25105,-7.8164 0.69616,-1.96511 1.63655,-6.82581 2.08976,-10.80156 0.47466,-4.16385 0.60241,-11.1393 0.30132,-16.45238 -0.28749,-5.073089 -0.9792,-10.316353 -1.53715,-11.651706 -0.55796,-1.335365 -1.26659,-3.954938 -1.57475,-5.821273 -0.30816,-1.866346 -1.00893,-4.261332 -1.5573,-5.322201 -0.54836,-1.060869 -1.9113,-3.838406 -3.02875,-6.172313 -1.11745,-2.333907 -4.36179,-6.724083 -7.20964,-9.755953 -3.47643,-3.701053 -5.96149,-5.677197 -7.56249,-6.013737 -1.6633,-0.349629 -2.67427,-0.152173 -3.34235,0.652822 -0.80263,0.967102 -0.0364,2.066333 4.72959,6.785267 3.12805,3.097163 6.6627,7.36717 7.85477,9.488908 1.19209,2.121738 2.9861,6.339436 3.98672,9.372659 1.00061,3.033224 2.35515,8.844959 3.01009,12.914988 0.65493,4.070039 1.19078,9.129249 1.19078,11.242699 0,2.11345 -0.53371,7.43511 -1.18603,11.82591 -0.6523,4.39078 -1.96597,9.86957 -2.91925,12.1751 -0.95329,2.30552 -2.63062,5.58063 -3.72741,7.27802 -1.09681,1.69739 -3.84705,4.96172 -6.11166,7.25406 -2.26463,2.29236 -5.67663,5.15671 -7.58226,6.3652 -3.43137,2.17612 -3.58208,2.1973 -15.637718,2.1973 -10.28621,0 -12.684362,-0.22717 -15.472611,-1.46565 -1.814826,-0.80611 -4.167672,-1.85137 -5.228541,-2.3228 -1.060869,-0.47145 -2.970426,-1.53732 -4.243464,-2.3686 -1.273038,-0.83128 -3.287862,-2.06122 -4.477386,-2.73322 -1.189524,-0.67199 -2.794217,-1.81093 -3.565994,-2.53097 -0.771766,-0.72004 -2.864571,-2.51044 -4.650664,-3.97865 -1.786093,-1.46822 -4.944405,-4.80208 -7.018459,-7.40859 -2.074067,-2.60651 -4.117999,-5.65172 -4.542079,-6.76714 -0.493468,-1.29792 -1.171526,-1.87435 -1.883437,-1.60117 -0.611812,0.23478 -1.317873,1.24563 -1.569039,2.24634 -0.251166,1.00071 -0.09805,2.76283 0.340353,3.91579 0.438357,1.15298 2.514719,4.25498 4.614128,6.89335 2.099408,2.63836 5.009603,5.70657 6.46709,6.81826 1.457487,1.11167 3.114018,2.47281 3.681184,3.02473 0.567165,0.55195 2.593571,2.04519 4.50314,3.31832 1.909557,1.27314 4.166306,2.73139 5.015006,3.24058 0.848688,0.50917 2.931853,1.66311 4.629241,2.56429 1.697376,0.9012 4.474926,2.07101 6.172314,2.59957 2.180062,0.67888 3.158735,1.44838 3.333344,2.62092 0.135964,0.91294 -0.64523,3.60918 -1.735961,5.99166 -1.090732,2.38248 -1.994931,4.72382 -2.009339,5.20297 -0.01436,0.47916 -0.696997,2.25996 -1.516894,3.95735 -0.819897,1.69739 -1.522744,3.78054 -1.561882,4.62924 -0.0392,0.84869 -1.179295,4.84141 -2.533682,8.87271 -2.462526,7.32962 -2.462526,7.32962 -35.060079,7.53088 C 2.1620958,198.56614 2.1620958,198.56614 2.1620958,101.34375 Z M 137.69942,192.71467 c 0.12571,-0.39783 -0.0985,-1.24121 -0.49831,-1.87417 -0.55653,-0.8812 -0.93918,-0.93855 -1.63297,-0.24475 -0.49836,0.49835 -0.68624,1.47911 -0.4175,2.17944 0.26875,0.70034 0.90073,1.13596 1.40443,0.96806 0.50369,-0.16788 1.01865,-0.63076 1.14435,-1.02858 z M 62.342187,179.98695 c 0,-0.91637 -0.52399,-1.49296 -1.350195,-1.48572 -0.74261,0.006 -1.819546,0.30923 -2.393197,0.67275 -0.819379,0.51922 -0.668347,0.92335 0.70439,1.88486 0.961064,0.67315 2.038012,1.04431 2.393196,0.82479 0.355197,-0.21952 0.645806,-1.07303 0.645806,-1.89668 z m 31.424161,-6.59292 c -0.256381,-0.25638 -0.921832,-0.28378 -1.478775,-0.0608 -0.615484,0.24629 -0.432672,0.42911 0.466131,0.46613 0.813328,0.0334 1.269024,-0.14885 1.012644,-0.40522 z m 65.789842,-8.83787 c 0,-0.39931 -0.3472,-0.726 -0.77154,-0.726 -0.42435,0 -0.77154,0.54128 -0.77154,1.20284 0,0.66157 0.34719,0.98827 0.77154,0.726 0.42434,-0.26226 0.77154,-0.80354 0.77154,-1.20284 z m -122.674811,-3.4264 c 0,-0.21217 -0.173596,-0.38576 -0.385765,-0.38576 -0.212181,0 -0.385777,0.17359 -0.385777,0.38576 0,0.21218 0.173596,0.38578 0.385777,0.38578 0.212169,0 0.385765,-0.1736 0.385765,-0.38578 z M 205.41283,139.22173 c 0.23477,-0.37988 -0.12032,-0.90067 -0.78911,-1.15731 -0.6688,-0.25664 -1.70837,-0.46661 -2.31019,-0.46661 -0.60181,0 -1.09421,0.5208 -1.09421,1.15731 0,0.71265 0.72363,1.15731 1.88331,1.15731 1.03583,0 2.07542,-0.31082 2.3102,-0.6907 z m -5.73659,-3.55277 c 0,-0.21217 -0.1736,-0.38577 -0.38577,-0.38577 -0.21216,0 -0.38576,0.1736 -0.38576,0.38577 0,0.21218 0.1736,0.38577 0.38576,0.38577 0.21217,0 0.38577,-0.17359 0.38577,-0.38577 z M 11.038172,132.96313 c 0.264114,-0.42736 -0.06262,-0.98528 -0.726014,-1.23986 -0.6634145,-0.25458 -1.7490022,-0.25458 -2.4124181,0 -0.6634153,0.25458 -0.9901145,0.8125 -0.7260008,1.23986 0.2641138,0.42734 1.1336009,0.77698 1.9322164,0.77698 0.7986033,0 1.6681025,-0.34964 1.9322165,-0.77698 z m 26.18841,0.0711 c 0.239948,-0.38825 0.663686,-2.90539 0.941631,-5.59366 0.340588,-3.29419 1.154141,-5.89394 2.495308,-7.97392 1.094487,-1.69739 2.19686,-3.25976 2.449744,-3.47194 0.252872,-0.21217 1.461418,-2.12173 2.685643,-4.24346 1.224224,-2.12174 2.96753,-4.96172 3.874013,-6.3111 0.906483,-1.34937 4.380182,-5.880337 7.719341,-10.068797 4.333935,-5.436221 8.637818,-9.667491 15.040711,-14.786928 4.933222,-3.944356 10.214685,-7.919645 11.73657,-8.833955 1.521896,-0.914323 4.78478,-2.860334 7.25085,-4.324483 2.466064,-1.464149 7.212295,-4.546033 10.547147,-6.84863 6.0634,-4.186552 6.0634,-4.186552 11.40726,-3.8042 4.56322,0.326499 5.4877,0.177021 6.32835,-1.023167 0.75066,-1.071722 0.81436,-2.834179 0.26821,-7.421422 -0.51847,-4.354863 -1.17056,-6.516457 -2.3617,-7.828739 -0.905,-0.997059 -3.38143,-2.939657 -5.50317,-4.316902 -2.12173,-1.377234 -4.97828,-2.943919 -6.34788,-3.481504 -1.36961,-0.537585 -3.62637,-0.802464 -5.01501,-0.588612 -1.388654,0.213841 -4.76967,0.793177 -7.513378,1.287387 -2.743691,0.494222 -5.377612,1.221482 -5.853142,1.616146 -0.475541,0.394652 -2.299077,1.223671 -4.052306,1.84224 -1.753229,0.61858 -5.583219,2.688444 -8.511082,4.599708 -2.927863,1.911252 -6.150526,4.510591 -7.161486,5.776308 -1.010949,1.265716 -2.695837,3.491202 -3.744181,4.945534 -1.048357,1.454333 -2.829035,3.17392 -3.957069,3.821327 -1.278605,0.733817 -2.449378,0.924728 -3.108909,0.506923 -0.581867,-0.368592 -2.159687,-0.675481 -3.506258,-0.681978 -1.539871,-0.0071 -3.356062,0.752014 -4.894802,2.046781 -2.330364,1.960866 -2.422789,2.248439 -1.946906,6.057289 0.499601,3.998702 0.499601,3.998702 -3.977891,8.091511 -2.462621,2.251052 -6.278122,5.45254 -8.478877,7.114427 -2.200756,1.661887 -4.840045,4.124991 -5.865083,5.473574 -1.025039,1.348583 -2.438338,3.567713 -3.14068,4.93141 -0.702329,1.36372 -2.354164,5.694685 -3.670731,9.624403 -2.136828,6.378009 -2.360897,7.896529 -2.087532,14.146809 0.257134,5.87917 0.63985,7.57115 2.386888,10.55224 1.144347,1.9527 3.69738,4.97347 5.673395,6.71282 2.859675,2.51719 4.19099,3.16247 6.524744,3.16247 1.612603,0 3.12832,-0.31766 3.368268,-0.70591 z M 15.27827,97.137474 c 0,-1.035817 -0.307725,-2.073501 -0.683826,-2.305948 -0.376101,-0.23244 -0.88014,0.328107 -1.120088,1.245674 -0.239948,0.917564 -0.258935,1.955241 -0.04214,2.305941 0.216748,0.35071 0.720787,0.63765 1.120088,0.63765 0.399302,0 0.726013,-0.84749 0.726013,-1.883317 z M 206.23433,75.103061 c 0,-2.372221 -0.2578,-2.730054 -2.12135,-2.944483 -1.70225,-0.195879 -2.27715,0.165639 -2.90986,1.829809 -0.56719,1.491823 -0.5317,2.383333 0.12646,3.17638 0.50324,0.606351 1.81267,0.998107 2.90985,0.870571 1.72136,-0.200093 1.9949,-0.602172 1.9949,-2.932277 z M 187.73827,42.664603 c 0.27374,-0.442936 0.0659,-1.325642 -0.46185,-1.961549 -0.62342,-0.751179 -1.22313,-0.892652 -1.71195,-0.403833 -0.4138,0.413803 -0.54358,1.296497 -0.28837,1.961548 0.2552,0.66504 0.8016,1.20917 1.21423,1.20917 0.41261,0 0.97419,-0.362412 1.24794,-0.805336 z m -2.03839,-25.355895 c 0.84794,-0.537009 0.70815,-0.869734 -0.67677,-1.610931 -1.39053,-0.744175 -1.87202,-0.729309 -2.36795,0.0731 -0.34238,0.553994 -0.45133,1.284221 -0.24212,1.622738 0.20922,0.338529 0.7939,0.610176 1.29929,0.603678 0.50539,-0.0071 1.39979,-0.316364 1.98755,-0.688605 z m -28.13566,-5.168677 c 0.67125,-0.25757 1.22043,-0.951956 1.22043,-1.543075 0,-0.6798237 -0.85056,-1.0747707 -2.31463,-1.0747707 -1.41449,0 -2.31461,0.400056 -2.31461,1.0287237 0,0.5658 0.23146,1.260186 0.51436,1.543074 0.28289,0.2829 0.77528,0.514361 1.0942,0.514361 0.31892,0 1.12904,-0.210733 1.80025,-0.468313 z M 146.44001,9.8513803 c 0,-0.7184804 -0.52493,-1.1120724 -1.28626,-0.9644194 -0.70745,0.1372 -1.43077,0.6834494 -1.60737,1.2138781 -0.18835,0.565683 0.34346,0.964431 1.28626,0.964431 0.94771,0 1.60737,-0.498176 1.60737,-1.2138897 z m 7.66694,58.3880427 c -2.37039,-2.046616 -3.8668,-4.131429 -4.58081,-6.382011 -0.58321,-1.838343 -1.68978,-3.963565 -2.45903,-4.722701 -0.76926,-0.759136 -1.39864,-2.299136 -1.39864,-3.422202 0,-1.123078 -0.69801,-2.784965 -1.55115,-3.693072 -1.26139,-1.342686 -1.58567,-2.865336 -1.73596,-8.150895 -0.11418,-4.013709 0.23114,-7.753512 0.90271,-9.777646 0.83324,-2.511446 1.85758,-3.729162 4.38086,-5.207895 1.81133,-1.061516 4.21126,-1.930015 5.33317,-1.930015 1.12191,0 3.53753,0.877704 5.36805,1.950449 1.8305,1.072758 4.23588,3.322068 5.34528,4.998469 1.10939,1.676412 2.01707,3.248099 2.01707,3.49265 0,0.244551 0.74683,2.074761 1.65962,4.067125 1.41442,3.087264 1.66965,5.115376 1.72752,13.726663 0.0669,9.951054 0.0326,10.161528 -2.2664,13.887712 -2.17684,3.528328 -2.56659,3.797679 -5.7781,3.993216 -3.04353,0.18532 -3.85297,-0.143592 -6.96419,-2.829847 z m -1.49463,-26.698334 c 0,-0.21218 -0.17359,-0.385776 -0.38576,-0.385776 -0.21217,0 -0.38577,0.173596 -0.38577,0.385776 0,0.21217 0.1736,0.385766 0.38577,0.385766 0.21217,0 0.38576,-0.173596 0.38576,-0.385766 z m 0.17071,-4.999786 c 0.14142,-1.236713 -0.21678,-1.971201 -1.04593,-2.144726 -0.82772,-0.173232 -1.53744,0.529169 -2.06564,2.044333 -0.67581,1.938642 -0.59742,2.356012 0.48946,2.606554 0.71175,0.164062 1.54452,0.09052 1.85058,-0.16352 0.30606,-0.254003 0.65325,-1.308198 0.77153,-2.342641 z"
       id="path137346"
       sodipodi:nodetypes="ccccsssssssssssssssssssssssssscscssssssssssssscsssssssssssssscsssssssscsssscssssssssssssssssssssssssssssssssssssssssssssssssssssssccssssssscsssssccssssssssssssssssssssssssssssssssssssssssssssssssssssssscsssssssssssscsscsccsssssssssssssssscssssssssssssssssssscsssssssscsssssssssssss" />
  </g>
</svg>
